<svg xmlns="http://www.w3.org/2000/svg" width="512" height="512" viewBox="0 0 556.665 556.665"><g fill="#ffa245"><path d="M545.783 241.475l-45.267-60.229-13.474-74.122a54.11 54.11 0 0 0-45.702-43.958l-74.59-10.584-61.936-42.886c-15.56-10.775-35.2-12.678-52.544-5.095a54.09 54.09 0 0 0-10.843 6.331l-60.225 45.262-74.127 13.474a54.352 54.352 0 0 0-12.016 3.663c-17.08 7.465-29.316 23.574-31.936 42.031l-10.579 74.591-42.89 61.945a54.102 54.102 0 0 0 1.23 63.391l45.267 60.222 13.468 74.125a54.105 54.105 0 0 0 45.699 43.957l74.596 10.584 61.93 42.886c15.33 10.609 35.463 12.572 52.545 5.1a54.07 54.07 0 0 0 10.849-6.332l60.231-45.268 74.13-13.474a54.567 54.567 0 0 0 12.014-3.661c17.077-7.467 29.313-23.57 31.934-42.035l10.578-74.592 42.891-61.94a54.112 54.112 0 0 0-1.233-63.386zM278.331 476.4c-109.22 0-198.071-88.852-198.071-198.068 0-109.22 88.852-198.071 198.071-198.071s198.071 88.851 198.071 198.071c0 109.217-88.851 198.068-198.071 198.068z"/><path d="M278.326 307.329h28.456l-2.692 29.967-25.764 6.964-.021.011-25.733-6.965-1.724-19.252H227.65l3.304 37.116 47.341 13.138.031-.011 47.372-13.127 6.332-70.956h-84.214l-2.099-23.661h88.416l2.071-23.097H220.455l6.237 69.873z"/><path d="M278.331 98.936c-98.915 0-179.396 80.473-179.396 179.396 0 98.913 80.476 179.396 179.396 179.396 98.92 0 179.394-80.483 179.394-179.396 0-98.923-80.479-179.396-179.394-179.396zm46.979 49.443h11.754v23.532h16.519v11.607H325.31v-35.139zm-45.389 0h12.243l7.529 12.366 7.529-12.366h12.251v35.139h-11.687v-17.406l-8.089 12.487h-.196l-8.089-12.487v17.406H279.93v-35.139h-.009zm-37.573 0h32.425v11.661h-10.346v23.478h-11.744V160.04h-10.335v-11.661zm-39.333 0h11.747v11.607h10.737v-11.607h11.744v35.139h-11.744v-11.765h-10.737v11.765h-11.747v-35.139zm150.749 238.974l-75.474 20.919-75.406-20.93-16.798-188.398h184.497l-16.819 188.409z"/></g></svg>